<?xml version="1.0" encoding="utf-8"?>
<!-- Generator: Adobe Illustrator 16.0.0, SVG Export Plug-In . SVG Version: 6.00 Build 0)  -->
<!DOCTYPE svg PUBLIC "-//W3C//DTD SVG 1.1//EN" "http://www.w3.org/Graphics/SVG/1.1/DTD/svg11.dtd">
<svg version="1.1" id="Layer_1" xmlns="http://www.w3.org/2000/svg" xmlns:xlink="http://www.w3.org/1999/xlink" x="0px" y="0px"
	 width="1012.539px" height="987.721px" viewBox="0 0 1012.539 987.721" enable-background="new 0 0 1012.539 987.721"
	 xml:space="preserve">
<path fill="#2260AA" stroke="#FFFFFF" stroke-width="20" stroke-miterlimit="10" d="M110.733,58.544h792.613
	c27.624,0,50.019,21.843,50.019,48.795v773.198c0,26.948-22.395,48.794-50.019,48.794H110.733
	c-27.625,0-50.019-21.846-50.019-48.794V107.339C60.714,80.386,83.108,58.544,110.733,58.544z"/>
<g>
	<path fill="#FFFFFF" d="M629.084,306.913c-1.556,0.188-2.508-0.817-3.593-1.425c-15.97-8.938-31.93-17.899-47.89-26.857
		c-23.602-13.248-47.195-26.513-70.808-39.741c-4.104-2.3-2.757-2.272-6.898,0.053C429.975,278.158,360.07,317.4,290.16,356.635
		c-0.45,0.252-0.887,0.537-1.351,0.752c-1.275,0.59-2.019,1.477-2,2.971c0.015,1.155-0.169,2.313-0.214,3.473
		c-0.354,9.021-0.683,18.04-1.052,27.059c-0.661,16.104-1.352,32.208-2.025,48.311c-0.291,6.959-0.587,13.916-0.858,20.872
		c-0.631,16.105-1.218,32.212-1.878,48.318c-0.878,21.386-1.818,42.769-2.711,64.154c-0.376,9.018-0.674,18.04-1.043,27.059
		c-0.662,16.104-1.356,32.207-2.033,48.309c-0.304,7.217-0.604,14.433-0.885,21.646c-0.372,9.662-0.696,19.329-1.101,28.992
		c-0.085,2.033,0.159,4.122-0.663,6.082c-2.188,0.013-3.701-1.516-5.415-2.497c-26.628-15.233-53.232-30.501-79.819-45.803
		c-4.495-2.588-3.899-1.357-3.688-6.506c0.627-15.203,1.354-30.4,2.043-45.6c0.285-6.313,0.579-12.623,0.849-18.938
		c0.634-14.813,1.221-29.632,1.884-44.444c0.879-19.707,1.817-39.411,2.718-59.12c0.353-7.729,0.65-15.459,0.998-23.188
		c0.685-15.328,1.386-30.656,2.08-45.984c0.284-6.313,0.579-12.622,0.848-18.936c0.631-14.814,1.235-29.631,1.872-44.443
		c0.494-11.465,1.069-22.93,1.483-34.396c0.075-2.091,0.904-3.196,2.666-4.208c15.651-8.983,31.247-18.059,46.858-27.109
		c83.853-48.614,167.7-97.237,251.565-145.83c5.016-2.907,3.189-2.902,8.185-0.018c39.057,22.576,78.099,45.178,117.119,67.818
		c5.763,3.344,4.68,1.382,4.692,8.308c0.044,29.66,0.022,59.321,0.013,88.979C629.293,304.109,629.465,305.523,629.084,306.913z"/>
	<path fill="none" stroke="#FFFFFF" stroke-width="20" stroke-miterlimit="10" d="M739.381,272.074
		c1.391,0.766,2.513,1.357,3.612,1.99c26.02,14.997,52.035,29.993,78.05,44.995c4.349,2.508,3.729,1.564,3.729,6.586
		c0.01,114.765,0.01,229.534,0,344.297c0,5.003,0.681,3.9-3.786,6.572c-96.563,57.764-193.135,115.517-289.712,173.256
		c-4.416,2.64-3.005,2.573-7.541,0.021c-39.977-22.514-79.941-45.055-119.894-67.61c-4.467-2.521-3.842-1.299-3.847-6.466
		c-0.021-30.688-0.013-61.381,0.003-92.071c0-1.377-0.23-2.796,0.319-4.35c1.512,0.29,2.622,1.19,3.806,1.881
		c15.478,9.023,30.947,18.061,46.417,27.096c22.927,13.389,45.853,26.78,68.778,40.172c0.557,0.325,1.166,0.582,1.665,0.979
		c1.563,1.242,2.965,0.888,4.583-0.058c13.027-7.595,26.096-15.119,39.148-22.668c57.353-33.155,114.709-66.308,172.051-99.479
		c5.059-2.925,4.272-1.563,4.275-7.435c0.019-80.85,0.039-161.704-0.016-242.556c-0.008-11.86-0.384-23.722-0.631-35.581
		c-0.458-21.914-0.947-43.83-1.411-65.744C738.963,274.762,738.722,273.593,739.381,272.074z"/>
	<path fill="#FFFFFF" d="M526.48,704.188c-0.412-1.648-0.229-3.184-0.229-4.695c-0.011-56.744-0.009-113.486-0.009-170.227
		c0-7.868,0-15.734,0.001-23.602c0-0.901,0.023-1.807,0.004-2.709c-0.025-0.977,0.254-1.739,1.201-2.209
		c0.806-0.398,1.561-0.902,2.341-1.354c57.24-33.101,114.484-66.196,171.728-99.294c1.006-0.58,1.998-1.185,3.021-1.728
		c0.853-0.449,1.41-0.063,1.451,1.001c0.042,1.159,0.035,2.32,0.035,3.481c0,65.124,0,130.25,0,195.374c0,0.387,0.004,0.773,0,1.161
		c-0.054,4.208,0.448,3.525-3.305,5.647c-53.185,30.063-106.371,60.126-159.556,90.188c-4.715,2.664-9.429,5.323-14.145,7.986
		C528.258,703.642,527.529,704.168,526.48,704.188z"/>
	<path fill="none" stroke="#FFFFFF" stroke-width="18" stroke-miterlimit="10" d="M479.131,613.353
		c0.636,5.122,2.199,10.023,3.269,15.019c1.079,5.037,2.375,10.027,3.558,15.044c1.209,5.142,2.395,10.288,3.593,15.433
		c1.169,5.019,2.337,10.038,3.518,15.054c1.183,5.018,2.39,10.023,3.558,15.043c1.166,4.992,2.301,9.997,3.428,14.914
		c-1.074,0.655-1.705,0.012-2.319-0.271c-7.833-3.631-15.625-7.35-23.479-10.933c-1.814-0.825-2.725-1.96-3.228-3.904
		c-4.739-18.334-9.581-36.643-14.396-54.954c-3.244-12.334-6.554-24.649-9.691-37.012c-0.53-2.085-1.55-3.312-3.363-4.342
		c-30.032-17.063-60.033-34.184-90.045-51.284c-3.278-1.867-3.307-1.848-3.51,2.072c-0.609,11.719-1.186,23.439-1.817,35.154
		c-0.699,12.874-1.445,25.746-2.18,38.618c-0.022,0.378-0.14,0.754-0.205,1.1c-0.713,0.365-1.289,0.013-1.848-0.275
		c-9.856-5.063-19.695-10.17-29.58-15.18c-1.617-0.82-2.146-1.784-2.062-3.609c0.76-16.487,1.403-32.98,2.104-49.471
		c0.773-18.292,1.569-36.586,2.354-54.879c0.76-17.648,1.52-35.296,2.278-52.945c0.532-12.366,1.061-24.735,1.597-37.102
		c0.093-2.157,0.24-4.308,0.517-6.544c1.797,0.184,2.912,1.12,4.109,1.805c15.999,9.153,31.979,18.337,47.967,27.505
		c41.037,23.528,82.078,47.047,123.103,70.597c4.436,2.546,3.861,1.383,3.861,6.491c0.018,38.431,0.01,76.858,0.008,115.289
		c0,1.031,0.006,2.063-0.043,3.093c-0.049,1.045-0.61,1.396-1.499,0.94c-0.917-0.469-1.807-0.992-2.705-1.501
		c-4.596-2.604-9.186-5.227-13.794-7.813C481.307,614.01,480.512,613.26,479.131,613.353z"/>
	<path fill="#2260AA" stroke="#FFFFFF" stroke-width="13" stroke-miterlimit="10" d="M257.528,353.575
		c2.411,1.448,3.572,3.56,3.431,6.395c-0.061,1.208-0.103,2.417-0.152,3.625c-3.665,85.616-7.329,171.231-10.993,256.852
		c-0.053,1.206-0.104,2.415-0.164,3.623c-0.174,3.431-2.057,5.576-5.118,6.833c-1.718,0.707-3.511,0.75-5.316,0.7
		c-6.887-0.188-13.775-0.379-20.661-0.54c-1.814-0.046-3.612-0.217-5.254-0.976c-2.782-1.286-4.483-3.407-4.495-6.646
		c-0.004-1.057,0.062-2.115,0.106-3.174c3.68-86.068,7.36-172.14,11.043-258.209c0.046-1.058,0.118-2.113,0.148-3.171
		c0.105-3.71,2.272-5.791,5.514-6.978c1.429-0.525,2.928-0.609,4.44-0.564c7.188,0.206,14.372,0.395,21.56,0.557
		C253.761,351.947,255.771,352.366,257.528,353.575z"/>
	<path fill="#2260AA" d="M677.698,456.695c0.664,1.107,0.413,2.156,0.413,3.156c0.016,23.843,0.013,47.686,0.013,71.529
		c0,0.128-0.021,0.261,0,0.388c0.372,2.227-0.697,3.455-2.592,4.557c-10.354,6.027-20.631,12.184-30.935,18.293
		c-0.888,0.527-1.785,1.035-2.65,1.595c-0.683,0.44-1.07,1.061-1.043,1.927c0.03,0.901-0.023,1.805-0.031,2.709
		c-0.113,11.081-0.223,22.164-0.334,33.246c-0.008,0.9-0.055,1.804-0.051,2.705c0.007,1.163-0.556,1.935-1.563,2.446
		c-0.688,0.354-1.361,0.73-2.039,1.104c-25.259,13.943-50.518,27.892-75.784,41.821c-1.091,0.601-2.091,1.492-3.593,1.521
		c-0.482-1.295-0.272-2.572-0.274-3.814c-0.014-16.367-0.011-32.736-0.011-49.105c0-19.46-0.018-38.921,0.013-58.382
		c0.004-4.697-0.579-3.637,3.367-6.001c37.911-22.702,75.828-45.387,113.75-68.067C675.423,457.683,676.405,456.803,677.698,456.695
		z"/>
	<path fill="#2260AA" stroke="#FFFFFF" stroke-width="15" stroke-miterlimit="10" d="M350.033,456.718
		c1.478,0.043,2.561,1.059,3.753,1.734c16.819,9.532,33.624,19.097,50.432,28.652c21.964,12.488,43.934,24.963,65.881,37.477
		c4.292,2.449,3.658,1.364,3.674,6.196c0.035,10.061,0.013,20.119,0.011,30.179c0,1.031-0.002,2.063-0.041,3.097
		c-0.03,0.856-0.514,1.192-1.206,0.837c-0.916-0.474-1.813-0.983-2.704-1.502c-38.991-22.698-77.981-45.396-116.963-68.106
		c-3.585-2.09-3.296-1.326-3.302-5.681c-0.015-9.801-0.016-19.604,0.01-29.405C349.582,459.068,349.299,457.885,350.033,456.718z"/>
	<g>
		<g>
			<polygon fill="#2260AA" stroke="#FFFFFF" stroke-width="4" stroke-miterlimit="10" points="430.697,357.5 428.733,370.658 
				437.401,370.839 437.722,367.079 437.821,365.994 438.794,366.011 443.791,366.115 442.734,373.26 425.998,387.838 
				423.872,403.715 446.485,404.178 447.698,395.809 433.02,395.51 433.435,391.889 450.535,377.228 452.938,357.73 			"/>
			<polygon fill="#2260AA" stroke="#FFFFFF" stroke-width="4" stroke-miterlimit="10" points="458.6,369.684 465.482,369.825 
				460.522,404.465 468.733,404.634 474.908,358.181 460.506,357.886 			"/>
		</g>
		<g>
			<polygon fill="#2260AA" stroke="#FFFFFF" stroke-width="4" stroke-miterlimit="10" points="554.592,358.094 552.631,371.252 
				561.295,371.43 561.617,367.673 561.718,366.589 562.691,366.605 567.689,366.709 566.63,373.852 549.896,388.43 
				547.771,404.305 570.382,404.771 571.593,396.403 556.914,396.104 557.331,392.483 574.434,377.822 576.832,358.323 			"/>
			<polygon fill="#2260AA" stroke="#FFFFFF" stroke-width="4" stroke-miterlimit="10" points="584.822,358.715 582.858,371.872 
				591.525,372.051 591.844,368.291 591.945,367.21 592.922,367.226 597.918,367.328 596.859,374.473 580.12,389.051 
				577.994,404.926 600.61,405.389 601.823,397.025 587.146,396.723 587.56,393.104 604.659,378.442 607.058,358.943 			"/>
		</g>
		<polygon fill="#2260AA" stroke="#FFFFFF" stroke-width="3" stroke-miterlimit="10" points="359.295,387.003 411.892,417.484 
			411.352,395.853 372.26,372.922 403.882,353.811 404.088,362.049 386.772,373.217 393.264,376.175 410.623,366.651 
			410.065,344.295 360.35,371.97 405.968,399.254 405.691,407.243 359.116,379.824 		"/>
		<polygon fill="#2260AA" stroke="#FFFFFF" stroke-width="4" stroke-miterlimit="10" points="473.462,431.076 481.788,431.247 
			532.058,340.07 541.336,340.261 488.689,431.388 496.774,431.555 550.692,334.104 528.569,333.648 		"/>
		<polygon fill="#2260AA" stroke="#FFFFFF" stroke-width="3" stroke-miterlimit="10" points="673.303,376.105 620.709,345.624 
			621.25,367.258 660.343,390.189 628.719,409.3 628.513,401.061 645.829,389.89 639.337,386.935 621.979,396.456 622.535,418.815 
			672.254,391.14 626.635,363.857 626.906,355.864 673.485,383.285 		"/>
	</g>
</g>
</svg>
